<svg xmlns="http://www.w3.org/2000/svg" height="24px" viewBox="0 -960 960 960" width="24px" fill="#8A97BF"><path d="M422.65-154.96q-23.42-23.42-23.42-57.35 0-33.92 23.42-57.34 23.43-23.42 57.35-23.42t57.35 23.42q23.42 23.42 23.42 57.34 0 33.93-23.42 57.35-23.43 23.42-57.35 23.42t-57.35-23.42ZM254-346l-62.46-63.69q55.54-55.54 129.27-87.54 73.73-32 159.19-32t159.19 32.31q73.73 32.31 129.27 88.46L706-346q-44-44-102-69t-124-25q-66 0-124 25t-102 69ZM84-516l-62.46-62.46q87.77-89 205-139.88Q343.77-769.23 480-769.23q136.23 0 253.46 50.89 117.23 50.88 205 139.88L876-516q-77-77-178.5-120.5T480-680q-116 0-217.5 43.5T84-516Z"/></svg>