<?xml version="1.0" encoding="UTF-8"?>
<svg width="1120" height="1120" viewBox="0 0 1120 1120" fill="none" xmlns="http://www.w3.org/2000/svg" role="img" aria-label="Zipped document icon">
  <defs>
    <linearGradient id="paperGradient" x1="167" y1="63" x2="945" y2="1070" gradientUnits="userSpaceOnUse">
      <stop offset="0" stop-color="#FFFFFF"/>
      <stop offset="0.72" stop-color="#FAFAFA"/>
      <stop offset="1" stop-color="#F2F2F2"/>
    </linearGradient>
    <linearGradient id="zipGradient" x1="475" y1="389" x2="632" y2="1070" gradientUnits="userSpaceOnUse">
      <stop offset="0" stop-color="#A8B0CF"/>
      <stop offset="1" stop-color="#7F88AB"/>
    </linearGradient>
  </defs>
  <path d="M 232 63 H 880 C 916 63 945 92 945 128 V 1000 C 945 1039 914 1070 875 1070 H 235 C 197 1070 167 1040 167 1002 V 131 C 167 93 197 63 232 63 Z" fill="url(#paperGradient)"/>
  <path d="M 534 611 L 535 622 L 535 638 L 572 638 L 573 620 L 573 612 L 572 610 Z M 495 389 L 492 390 L 490 391 L 488 392 L 484 395 L 480 399 L 478 402 L 477 404 L 476 407 L 475 411 L 475 569 L 476 573 L 477 576 L 478 578 L 481 582 L 482 583 L 487 587 L 493 590 L 498 591 L 512 592 L 512 661 L 513 667 L 515 669 L 515 671 L 516 673 L 514 676 L 514 686 L 515 687 L 515 694 L 553 695 L 552 721 L 514 722 L 514 725 L 514 735 L 514 749 L 515 752 L 553 753 L 552 778 L 515 778 L 515 784 L 514 785 L 514 794 L 515 810 L 553 811 L 552 835 L 547 836 L 515 835 L 514 844 L 514 850 L 514 865 L 515 867 L 528 866 L 536 866 L 553 868 L 551 893 L 515 892 L 515 897 L 514 898 L 514 906 L 515 923 L 549 923 L 553 925 L 552 949 L 515 949 L 514 951 L 514 954 L 515 966 L 514 967 L 514 978 L 515 980 L 553 981 L 552 1006 L 514 1007 L 514 1009 L 514 1021 L 514 1026 L 515 1037 L 553 1038 L 552 1063 L 514 1064 L 514 1066 L 514 1069 L 554 1069 L 555 1067 L 593 1066 L 593 1037 L 591 1036 L 554 1035 L 553 1033 L 553 1022 L 553 1019 L 555 1010 L 593 1009 L 593 980 L 590 979 L 570 979 L 564 979 L 554 979 L 553 955 L 555 953 L 593 952 L 592 923 L 554 922 L 553 913 L 553 910 L 555 897 L 593 896 L 592 866 L 555 866 L 553 864 L 553 856 L 555 840 L 593 839 L 592 809 L 554 808 L 553 798 L 553 796 L 555 783 L 593 782 L 592 752 L 555 752 L 553 750 L 555 725 L 593 724 L 592 694 L 554 693 L 555 685 L 575 685 L 579 684 L 581 683 L 583 682 L 586 680 L 589 677 L 591 674 L 592 672 L 593 668 L 594 662 L 595 599 L 595 591 L 608 591 L 612 590 L 615 589 L 618 588 L 620 587 L 627 580 L 629 577 L 630 575 L 631 573 L 632 569 L 632 411 L 631 407 L 630 404 L 628 401 L 620 393 L 617 391 L 615 390 L 611 389 Z M 516 673 L 517 677 L 515 675 Z M 531 445 L 535 447 L 535 463 L 534 470 L 535 473 L 534 474 L 535 477 L 534 486 L 535 493 L 538 499 L 542 503 L 544 504 L 546 505 L 549 506 L 557 506 L 561 505 L 563 504 L 565 503 L 568 500 L 570 497 L 571 495 L 572 492 L 573 445 L 576 445 L 579 446 L 585 449 L 589 453 L 591 456 L 592 458 L 593 460 L 594 464 L 594 590 L 592 592 L 592 598 L 593 648 L 591 653 L 590 655 L 589 657 L 583 663 L 581 664 L 579 665 L 575 666 L 530 666 L 527 665 L 525 664 L 522 662 L 518 658 L 516 655 L 515 653 L 514 650 L 514 646 L 513 645 L 513 642 L 514 641 L 513 637 L 514 595 L 512 589 L 512 466 L 514 462 L 514 458 L 516 455 L 522 449 L 525 447 L 527 446 Z" fill="url(#zipGradient)" fill-rule="evenodd" clip-rule="evenodd"/>
</svg>
